<svg width="101" height="23" viewBox="0 0 101 23" fill="none" xmlns="http://www.w3.org/2000/svg">
<path fill-rule="evenodd" clip-rule="evenodd" d="M13.1162 0.604287V11.5401C13.1162 11.8605 13.2505 12.0156 13.4366 12.181C13.757 12.46 15.1111 13.38 15.3902 13.38C16.3101 13.38 15.2248 11.3437 16.4858 9.49352C18.8632 6.01018 23.8763 7.94307 23.8763 12.1603C23.8763 14.0312 23.1631 15.4059 21.4886 16.2431C18.4394 17.7626 14.894 15.5506 12.5373 13.7831C12.0722 13.4317 11.7001 13.1629 11.235 12.8115L9.87056 11.8089C7.4932 10.2274 4.45433 10.2894 2.18033 11.9949C1.25007 12.6978 -1.08594 15.5713 0.588541 15.5713C4.09255 15.5713 2.33538 15.6953 3.88583 14.1449C5.90141 12.1293 8.73356 14.2276 10.6354 15.6643C13.8604 18.1037 17.5298 20.5741 22.0984 18.8789C24.5998 17.9486 26.4914 15.4576 26.4914 12.7701C26.4914 10.3308 26.0366 8.57359 24.4965 7.06449C22.4809 5.06958 19.8658 4.4494 17.2197 5.52438C16.8682 5.66908 16.5892 5.86547 16.2481 6.05153C15.6589 6.36162 15.8036 5.99985 15.8139 5.25563C15.8243 4.26334 15.8139 3.27106 15.8139 2.27877C15.8139 -0.212282 15.8553 0.00478091 13.7157 0.00478091C13.3022 0.00478091 13.1058 0.211507 13.1058 0.614624L13.1162 0.604287Z" fill="#FEFEFE"/>
<path fill-rule="evenodd" clip-rule="evenodd" d="M61.0663 0.780044V18.4552C61.0663 18.6929 61.1077 18.6929 61.149 18.8893C61.6969 19.158 63.0509 19.158 63.5987 18.8893C64.1156 16.667 63.206 16.1295 64.3223 14.8788C64.7047 14.4447 65.2939 13.5971 65.8831 13.4627C66.3172 13.7521 66.741 14.4343 67.0924 14.8788L69.4181 17.897C70.4414 19.2614 70.2347 19.0753 72.4466 19.0753C72.8704 19.0753 72.9118 18.91 73.0565 18.6412C72.9738 18.2691 72.705 18.052 72.4673 17.7419C71.9091 16.9874 67.8056 11.7055 67.8056 11.4678C67.8056 11.2197 68.2294 10.9096 68.3948 10.7443C68.5292 10.6099 68.6222 10.5272 68.7359 10.3928C68.8806 10.2171 68.8806 10.1758 69.046 10L72.7981 6.21695C72.9841 5.8345 72.7877 5.99989 72.7877 5.6898C72.0228 5.51408 71.1339 5.60711 70.338 5.60711C69.7282 5.60711 68.4051 7.32294 67.8676 7.86042C67.5679 8.16018 67.3302 8.39791 67.0407 8.68733C66.7203 9.00776 66.5859 9.1628 66.2965 9.51424C65.8107 10.0931 64.8494 10.858 64.3636 11.5195C64.1983 11.7469 64.1466 11.8296 63.8778 11.9019C63.5781 11.4575 63.8882 11.9846 63.7228 10.8269L63.7021 0.614663C63.5264 0.490627 63.4747 0.356255 63.268 0.356255C62.3274 0.356255 61.0767 0.149528 61.0767 0.79038L61.0663 0.780044Z" fill="#FEFEFE"/>
<path fill-rule="evenodd" clip-rule="evenodd" d="M51.7017 16.884C49.1899 16.884 47.3294 14.7548 47.3294 12.5118C47.3294 11.0957 47.6395 10.0001 48.5284 9.08013C49.6654 7.89145 50.4096 7.78809 52.0531 7.78809C54.1307 7.78809 55.9912 10.1138 55.9912 12.0777C55.9912 14.6927 54.3271 16.8944 51.7017 16.8944V16.884ZM51.619 19.3338C55.4951 19.3338 58.6167 16.3259 58.6167 12.6875C58.6167 11.3128 58.6063 10.4755 57.9758 9.2145C56.8595 6.98185 54.6165 5.33838 52.0531 5.33838C49.5517 5.33838 48.2286 5.81385 46.5128 7.50901C45.9857 8.02582 45.4689 8.82172 45.1691 9.57627C44.9934 10.0207 44.8693 10.4445 44.7763 10.9303C44.1355 14.0726 45.7893 17.5766 48.7145 18.7446C49.4793 19.0547 50.5233 19.3441 51.619 19.3441V19.3338Z" fill="#FEFEFE"/>
<path fill-rule="evenodd" clip-rule="evenodd" d="M31.1427 12.3257C31.1427 10.9613 31.5975 10.0413 32.1867 9.25576C33.3857 7.67431 35.7217 7.38489 37.3858 8.18079C37.7786 8.36684 38.3264 8.73895 38.5952 9.06971C42.3886 13.7934 36.6003 19.6128 32.4347 15.4989C31.6492 14.7237 31.1427 13.4523 31.1427 12.3257ZM28.5173 11.9742C28.5173 13.2869 28.6103 14.1759 29.1581 15.3645L30.1607 16.9046C30.6155 17.4111 30.7809 17.6592 31.4735 18.1243C31.8456 18.3724 32.166 18.5585 32.6001 18.7445C35.732 20.0779 39.4634 19.0029 41.2413 16.3878C41.4687 16.0571 41.7064 15.6539 41.8718 15.2612C42.6263 13.4523 42.7711 11.3437 41.9648 9.55552C41.5617 8.65626 41.2826 8.20146 40.6521 7.44691C39.7218 6.33059 37.5926 5.31763 35.9491 5.31763C34.1816 5.31763 32.8275 5.48301 31.4114 6.55799C30.6466 7.13682 30.6776 7.08514 30.1504 7.74666C29.2201 8.89399 28.5173 10.3928 28.5173 11.9742Z" fill="#FEFEFE"/>
<path fill-rule="evenodd" clip-rule="evenodd" d="M86.5351 5.9378C86.5351 6.46495 90.1838 14.0932 90.7109 15.3232C90.99 15.9847 92.0443 17.8866 92.0443 18.5378C92.0443 19.5817 90.99 20.636 89.946 20.636C88.4369 20.636 87.9925 19.468 87.4343 20.9255C87.2793 21.3286 87.0622 21.6593 87.0622 22.0418C87.0622 22.6413 90.8453 23.799 92.6852 22.1555C93.3674 21.5456 93.6878 21.0805 94.1426 20.2949C94.3286 19.9745 94.5147 19.4887 94.6594 19.1476L98.0807 10.7545C98.2875 10.2274 100.003 6.13419 100.003 5.9378C100.003 5.38998 98.5459 5.58637 97.6363 5.58637C97.2021 5.58637 96.7267 7.25051 96.4889 7.85002L93.8635 14.6823C93.7601 14.9717 93.7498 15.0441 93.4294 15.1268C93.14 14.9201 92.9746 14.3412 92.8195 13.9898C92.6335 13.566 92.4681 13.1836 92.2924 12.7701L89.3775 6.06184C89.0778 5.35897 88.6333 5.58637 86.8762 5.58637C86.6694 5.58637 86.5247 5.73107 86.5247 5.9378H86.5351Z" fill="#FEFEFE"/>
<path fill-rule="evenodd" clip-rule="evenodd" d="M75.4235 9.26593C75.4235 10.2065 75.7026 11.1161 76.3745 11.726C78.7001 13.8346 82.7726 13.0697 82.7726 15.4781C82.7726 16.5944 81.3359 16.8735 80.3229 16.8735C77.2324 16.8735 76.4365 14.5788 75.6819 15.6434C75.5372 15.8502 75.4028 16.0466 75.2478 16.2636C75.1134 16.4497 74.8964 16.7391 74.8964 17.0492C74.8964 17.8347 80.4056 20.7703 83.7753 18.2275C85.8219 16.6771 86.0182 13.2971 83.3308 11.943C81.5116 11.0231 79.465 10.744 78.6071 10.1032C77.0256 8.92483 78.5347 6.84723 82.1111 8.08759C83.4652 8.55272 83.8063 9.34862 84.3954 8.33566C84.5505 8.06692 84.6745 7.88086 84.8192 7.62246C85.2534 6.8369 84.8296 6.77488 84.2094 6.41311C82.6279 5.48284 81.3152 5.40015 79.5374 5.40015C77.4288 5.40015 75.4235 7.13665 75.4235 9.25559V9.26593Z" fill="#FEFEFE"/>
</svg>
