<svg width="260" height="205" viewBox="0 0 260 205" fill="none" xmlns="http://www.w3.org/2000/svg">
<path d="M93.9927 119.55C94.3641 119.55 95.0731 119.55 95.4444 119.55C97.9766 122.082 100.137 124.581 102.636 126.742C106.248 129.983 108.038 134.304 108.038 138.997V139.706C108.038 142.947 106.957 146.188 105.168 149.058L77.7871 187.952C75.6263 191.193 75.2549 195.514 77.0781 199.127C78.9012 202.739 82.4799 204.9 86.8014 204.9H173.231C177.182 204.9 180.794 202.739 182.955 199.127C184.744 195.514 184.407 191.193 182.246 187.952L154.865 149.058C153.076 146.188 151.995 142.947 151.995 139.706V138.997C151.995 134.304 153.785 129.983 157.397 126.742C159.929 124.581 162.428 122.049 164.589 119.55C164.96 119.55 165.669 119.55 166.378 119.55C221.815 110.57 259.628 81.0282 259.628 46.8275C259.628 24.8486 241.97 7.22501 220.025 7.22501C216.075 7.22501 212.463 7.93401 208.85 9.01438C207.77 3.98388 203.448 0 198.046 0H61.21C55.8082 0 51.4867 3.95012 50.7777 9.01438C47.1652 7.93401 43.5864 7.22501 39.6025 7.22501C17.6236 7.22501 0 24.8824 0 46.8275C0 81.0282 37.8132 110.57 93.9927 119.55ZM151.962 183.664H107.295L122.791 161.685C127.484 155.203 129.645 147.64 129.645 139.706C129.645 147.64 132.177 155.203 136.499 161.685L151.962 183.664ZM206.689 34.572C209.931 30.6219 214.961 28.4611 220.025 28.4611C230.12 28.4611 238.02 36.3952 238.02 46.4562C238.02 65.1939 216.413 83.1889 184.001 92.9123C194.805 75.2549 202.739 54.7278 206.689 34.572ZM186.534 21.6075C182.921 53.3098 164.926 90.0426 141.867 110.907C133.933 118.099 129.274 128.193 129.274 138.997C129.274 128.193 124.581 118.099 116.681 110.907C93.9927 90.0426 75.9639 53.3098 72.7228 21.6075H186.534ZM39.6025 28.7988C44.633 28.7988 49.3259 30.9595 52.567 34.572C56.1795 54.3902 64.4512 75.2549 75.2549 93.2837C43.215 83.5603 21.6075 65.5653 21.6075 46.8275C21.6075 36.7328 29.8791 28.7988 39.6025 28.7988Z" fill="#E2E2E2" fill-opacity="0.63"/>
</svg>
