<svg width="29" height="29" viewBox="0 0 29 29" fill="none" xmlns="http://www.w3.org/2000/svg">
<path fill-rule="evenodd" clip-rule="evenodd" d="M25.4569 0C27.4124 0 29 1.58764 29 3.5431V25.4569C29 27.4124 27.4124 29 25.4569 29H19.4265V18.0732H23.1988L23.9165 13.3935H19.4265V10.3566C19.4265 9.07632 20.0537 7.82836 22.0648 7.82836H24.1063V3.84426C24.1063 3.84426 22.2535 3.52809 20.4823 3.52809C16.7843 3.52809 14.3673 5.7693 14.3673 9.82675V13.3935H10.2568V18.0732H14.3673V29H3.5431C1.58764 29 0 27.4124 0 25.4569V3.5431C0 1.58764 1.58758 0 3.5431 0H25.4569V0Z" fill="white"/>
</svg>
