<svg width="29" height="29" viewBox="0 0 29 29" fill="none" xmlns="http://www.w3.org/2000/svg">
<path d="M14.5 6.95752C10.4072 6.95752 7.01611 10.2902 7.01611 14.4414C7.01611 18.5926 10.3488 21.9253 14.5 21.9253C18.6512 21.9253 21.9839 18.5341 21.9839 14.4414C21.9839 10.3486 18.5927 6.95752 14.5 6.95752ZM14.5 19.2357C11.8689 19.2357 9.70563 17.0724 9.70563 14.4414C9.70563 11.8103 11.8689 9.64703 14.5 9.64703C17.131 9.64703 19.2943 11.8103 19.2943 14.4414C19.2943 17.0724 17.131 19.2357 14.5 19.2357Z" fill="white"/>
<path d="M22.2762 8.4778C23.2126 8.4778 23.9718 7.71867 23.9718 6.78223C23.9718 5.8458 23.2126 5.08667 22.2762 5.08667C21.3398 5.08667 20.5806 5.8458 20.5806 6.78223C20.5806 7.71867 21.3398 8.4778 22.2762 8.4778Z" fill="white"/>
<path d="M26.6613 2.39718C25.1411 0.818548 22.9778 0 20.5222 0H8.47782C3.39113 0 0 3.39113 0 8.47782V20.4637C0 22.9778 0.818548 25.1411 2.45565 26.7198C4.03427 28.2399 6.13911 29 8.53629 29H20.4637C22.9778 29 25.0827 28.1815 26.6028 26.7198C28.1815 25.1996 29 23.0363 29 20.5222V8.47782C29 6.02218 28.1815 3.91734 26.6613 2.39718ZM26.4274 20.5222C26.4274 22.3347 25.7843 23.7964 24.7319 24.7903C23.6794 25.7843 22.2177 26.3105 20.4637 26.3105H8.53629C6.78226 26.3105 5.32056 25.7843 4.26815 24.7903C3.21573 23.7379 2.68952 22.2762 2.68952 20.4637V8.47782C2.68952 6.72379 3.21573 5.2621 4.26815 4.20968C5.2621 3.21573 6.78226 2.68952 8.53629 2.68952H20.5806C22.3347 2.68952 23.7964 3.21573 24.8488 4.26815C25.8427 5.32056 26.4274 6.78226 26.4274 8.47782V20.5222Z" fill="white"/>
</svg>
