<svg width="50" height="50" viewBox="0 0 50 50" fill="none" xmlns="http://www.w3.org/2000/svg">
<path d="M24.5 49.2708L23.5625 48.125C22.9375 47.2917 7 28.6458 7 17.5C7 7.81252 14.9167 0 24.5 0C34.0833 0 42 7.91668 42 17.5C42 28.6458 26.0625 47.3958 25.4375 48.125L24.5 49.2708ZM24.5 2.39585C16.1667 2.39585 9.50001 9.16668 9.50001 17.3958C9.50001 26.1458 21.0625 41.0417 24.5 45.3125C27.9375 41.0417 39.5 26.25 39.5 17.3958C39.5 9.16668 32.8333 2.39585 24.5 2.39585Z" fill="#616161"/>
<path d="M24.5 24.1667C20.8542 24.1667 17.8333 21.1458 17.8333 17.5C17.8333 13.8542 20.8542 10.8333 24.5 10.8333C28.1458 10.8333 31.1667 13.8542 31.1667 17.5C31.1667 21.1458 28.1458 24.1667 24.5 24.1667ZM24.5 13.3333C22.2083 13.3333 20.3333 15.2083 20.3333 17.5C20.3333 19.7917 22.2083 21.6667 24.5 21.6667C26.7917 21.6667 28.6667 19.7917 28.6667 17.5C28.6667 15.2083 26.7917 13.3333 24.5 13.3333Z" fill="#616161"/>
</svg>
