<svg width="50" height="50" viewBox="0 0 50 50" fill="none" xmlns="http://www.w3.org/2000/svg">
<path d="M45 41H5C2.794 41 1 39.206 1 37V13C1 10.794 2.794 9 5 9H45C47.206 9 49 10.794 49 13V37C49 39.206 47.206 41 45 41ZM5 11C3.897 11 3 11.897 3 13V37C3 38.103 3.897 39 5 39H45C46.103 39 47 38.103 47 37V13C47 11.897 46.103 11 45 11H5Z" fill="#616161"/>
<path d="M25 30.191L7.457 18.84C6.993 18.539 6.86 17.921 7.16 17.457C7.46 16.993 8.079 16.861 8.543 17.16L25 27.809L41.457 17.16C41.921 16.861 42.54 16.993 42.84 17.457C43.14 17.921 43.007 18.539 42.543 18.84L25 30.191Z" fill="#616161"/>
<path d="M7.00099 35C6.67799 35 6.35999 34.844 6.16799 34.555C5.86099 34.095 5.98499 33.475 6.44499 33.168L15.445 27.168C15.905 26.861 16.526 26.985 16.832 27.445C17.139 27.905 17.015 28.525 16.555 28.832L7.55499 34.832C7.38399 34.945 7.19099 35 7.00099 35Z" fill="#616161"/>
<path d="M42.999 35C42.809 35 42.616 34.945 42.445 34.832L33.445 28.832C32.985 28.525 32.861 27.905 33.168 27.445C33.474 26.985 34.094 26.861 34.555 27.168L43.555 33.168C44.015 33.475 44.139 34.095 43.832 34.555C43.64 34.844 43.322 35 42.999 35Z" fill="#616161"/>
</svg>
