<svg width="50" height="50" viewBox="0 0 50 50" fill="none" xmlns="http://www.w3.org/2000/svg">
<path d="M30.2175 35.2518C30.2175 35.2518 34.2665 32.9338 35.3265 32.3768C36.3835 31.8178 37.4785 31.6768 38.1435 32.0828C39.1505 32.6988 47.6065 38.3238 48.3185 38.8218C49.0305 39.3208 49.3735 40.7458 48.3945 42.1418C47.4195 43.5378 42.9215 49.0578 41.0155 48.9988C39.1065 48.9368 31.1695 48.7628 16.2025 33.7918C1.2385 18.8258 1.0615 10.8868 1.0005 8.97776C0.939502 7.06976 6.4595 2.57076 7.8555 1.59476C9.2535 0.619762 10.6805 0.986762 11.1765 1.67276C11.7405 2.45376 17.3005 10.8828 17.9125 11.8488C18.3315 12.5088 18.1775 13.6098 17.6185 14.6678C17.0625 15.7278 14.7445 19.7768 14.7445 19.7768C14.7445 19.7768 16.3785 22.5638 21.9045 28.0888C27.4315 33.6148 30.2175 35.2518 30.2175 35.2518Z" stroke="#616161" stroke-width="2" stroke-miterlimit="10"/>
</svg>
