<svg width="100" height="25" viewBox="0 0 181 31" fill="none" xmlns="http://www.w3.org/2000/svg">
<path d="M84.8478 0.875122C78.798 0.875122 73.6236 4.50496 71.3582 9.73091C73.5721 8.7784 75.6831 8.59819 77.6396 8.9586C80.7803 9.52496 83.5091 11.4557 85.7746 13.8756C87.1904 15.3687 88.9153 16.9906 90.7945 17.3253C94.5531 17.9688 98.08 13.2578 93.9353 12.331C97.5908 12.1508 96.7413 16.6044 93.0857 17.7629C91.4896 18.2778 90.0222 18.1748 88.7093 17.7629C87.3706 17.3253 86.1607 16.553 85.0022 15.6519C82.5051 13.7212 80.2654 12.1765 77.794 12.1765C75.4771 12.1765 73.0572 13.4895 70.174 16.9906C70.2254 17.5569 70.3284 18.1233 70.4314 18.6897C72.4909 16.6559 74.2929 15.7292 75.992 15.5232C77.8198 15.3173 79.4416 15.9866 80.9862 17.0421C82.7111 18.2263 84.3329 19.5392 86.3667 20.2343C88.6063 21.0066 90.949 20.7749 94.3986 18.3807C92.5966 19.8739 91.052 20.7749 89.6103 21.264C88.1687 21.7532 86.8558 21.8046 85.5429 21.5472C83.2002 21.0838 81.5011 19.4362 79.107 19.1273C77.7683 18.9471 76.4554 19.2818 75.2454 20.0541C74.1642 20.7492 73.1345 21.7789 72.182 23.0918C72.4394 23.5295 72.7483 23.9671 73.0572 24.379C74.8335 22.3453 76.8415 21.2383 79.2872 22.1136C80.5744 22.5769 81.2952 23.6324 82.5051 24.1473C83.7923 24.6879 85.3369 24.5592 87.139 23.7611C85.5429 24.9968 83.921 25.7177 82.2219 25.3058C80.806 24.9711 80.0852 23.9671 78.3604 24.2503C77.5366 24.379 76.7386 24.7909 76.0177 25.5117C75.7088 25.8206 75.3999 26.181 75.091 26.5929C77.6911 28.9099 81.115 30.3 84.8478 30.3C92.9827 30.3 99.5474 23.7097 99.5474 15.6004C99.5474 7.46547 92.9827 0.875122 84.8478 0.875122Z" fill="white"/>
<path d="M7.97751 9.11307C7.41115 9.57645 7.15371 10.1686 7.15371 10.9151C7.15371 11.6617 7.48838 12.2538 8.15771 12.7172C8.82704 13.1548 10.3974 13.6954 12.843 14.2875C15.2887 14.8796 17.1937 15.8064 18.5581 17.0163C19.9225 18.2263 20.5919 19.9769 20.5919 22.2938C20.5919 24.6107 19.7166 26.49 17.9918 27.9316C16.2669 29.3733 13.9758 30.0941 11.144 30.0941C7.05074 30.0941 3.36941 28.5752 0.0999756 25.5375L3.54961 21.3155C6.32992 23.7612 8.90427 24.9711 11.2727 24.9711C12.3282 24.9711 13.152 24.7394 13.7698 24.276C14.3619 23.8126 14.6708 23.1948 14.6708 22.4225C14.6708 21.6502 14.3619 21.0323 13.7183 20.569C13.0747 20.1056 11.8133 19.6422 9.90827 19.1788C6.89628 18.458 4.70807 17.5312 3.31792 16.3985C1.87628 15.2915 1.18121 13.4895 1.18121 11.0438C1.18121 8.5982 2.05649 6.69317 3.83279 5.38025C5.58335 4.04159 7.7973 3.37225 10.4231 3.37225C12.148 3.37225 13.8728 3.65543 15.5976 4.24753C17.3224 4.83964 18.8155 5.68917 20.1027 6.7704L17.1937 10.9923C14.954 9.29327 12.6371 8.44374 10.2429 8.44374C9.29043 8.44374 8.51812 8.67543 7.97751 9.11307Z" fill="white"/>
<path d="M43.0145 29.8109L40.6204 24.2245H29.7823L27.3882 29.8109H21.2355L32.3824 3.96436H37.9688L49.1415 29.8109H43.0145ZM35.2142 11.6617L31.9448 19.1531H38.4322L35.2142 11.6617Z" fill="white"/>
<path d="M51.8702 29.8109V3.96436H57.6368V24.6622H68.655V29.8109H51.8702Z" fill="white"/>
<path d="M121.996 3.96436H127.762V29.8109H121.996L109.69 13.6182V29.8109H103.924V3.96436H109.33L121.996 20.5947V3.96436Z" fill="white"/>
<path d="M152.193 3.96436V9.11307H139.321V14.442H150.88V19.359H139.347V24.7137H152.605V29.8109H133.58V3.96436H152.193Z" fill="white"/>
<path d="M179.378 12.537C179.378 16.6817 177.731 19.359 174.461 20.569L181 29.8109H173.895L168.154 21.573H164.164V29.8109H158.397V3.96436H168.206C172.222 3.96436 175.079 4.63369 176.804 5.9981C178.529 7.36251 179.378 9.52497 179.378 12.537ZM172.427 15.6004C173.148 14.9569 173.509 13.9529 173.509 12.5627C173.509 11.1726 173.148 10.22 172.402 9.70517C171.655 9.1903 170.368 8.93286 168.514 8.93286H164.19V16.5787H168.411C170.368 16.5787 171.732 16.244 172.427 15.6004Z" fill="white"/>
</svg>
